<svg xmlns="http://www.w3.org/2000/svg" width="35.59" height="35.59" viewBox="0 0 35.59 35.59">
  <g id="Groupe_30" data-name="Groupe 30" transform="translate(-1225.574 -592.786)">
    <path id="Tracé_78" data-name="Tracé 78" d="M1334.039,682.485a2.657,2.657,0,0,0-.848-.622,2.475,2.475,0,0,0-2.075,0,2.659,2.659,0,0,0-.848.622,2.916,2.916,0,0,0-.571.92,3.147,3.147,0,0,0,0,2.259,2.92,2.92,0,0,0,.571.921,2.663,2.663,0,0,0,.848.622,2.475,2.475,0,0,0,2.075,0,2.66,2.66,0,0,0,.848-.622,2.925,2.925,0,0,0,.572-.921,3.149,3.149,0,0,0,0-2.259A2.922,2.922,0,0,0,1334.039,682.485Z" transform="translate(-84.767 -72.513)" fill="#0EA8D6"/>
    <path id="Tracé_79" data-name="Tracé 79" d="M1289.274,682.421q-.073-.076-.152-.146a2.534,2.534,0,0,0-3.577.214,2.911,2.911,0,0,0-.567.92,3.121,3.121,0,0,0-.207,1.127,3.083,3.083,0,0,0,.211,1.127,2.942,2.942,0,0,0,.574.92,2.673,2.673,0,0,0,.848.624,2.445,2.445,0,0,0,1.035.229,2.543,2.543,0,0,0,1.891-.851,2.912,2.912,0,0,0,.567-.92,3.123,3.123,0,0,0,.207-1.127,3,3,0,0,0-.214-1.172A2.853,2.853,0,0,0,1289.274,682.421Z" transform="translate(-48.29 -72.515)" fill="#0EA8D6"/>
    <path id="Tracé_80" data-name="Tracé 80" d="M1243.369,592.786a17.8,17.8,0,1,0,17.8,17.795A17.795,17.795,0,0,0,1243.369,592.786Zm11.842,25.663a8.557,8.557,0,0,1-2.185,1.2,10.2,10.2,0,0,1-3.25.615c-.008-.01-.833-.995-1.521-1.866a8.953,8.953,0,0,0,1.926-.789,7.644,7.644,0,0,0,1.292-.9,5.137,5.137,0,0,0,.953-1.055,13.179,13.179,0,0,1-2.64,1.358,15.07,15.07,0,0,1-3.341.991,15.714,15.714,0,0,1-2.889.268,16.816,16.816,0,0,1-3.083-.291,19.278,19.278,0,0,1-3.387-.99,13.454,13.454,0,0,1-1.682-.784.915.915,0,0,0-.1-.058.927.927,0,0,1-.1-.057.321.321,0,0,1-.093-.069c-.415-.23-.649-.392-.649-.392a5.075,5.075,0,0,0,.91,1.033,7.531,7.531,0,0,0,1.25.893,8.834,8.834,0,0,0,1.866.794c-.686.872-1.534,1.9-1.542,1.912a10.163,10.163,0,0,1-3.245-.615,8.475,8.475,0,0,1-2.178-1.2,7.525,7.525,0,0,1-1.223-1.166,4.348,4.348,0,0,1-.382-.525,27.626,27.626,0,0,1,.519-5.231,32.26,32.26,0,0,1,1.141-4.27c.428-1.257.857-2.26,1.141-2.88.309-.674.519-1.055.519-1.055a12.791,12.791,0,0,1,2.283-1.364,12.036,12.036,0,0,1,2-.721,9.025,9.025,0,0,1,2.161-.325h.026l.23.277a21.014,21.014,0,0,0-2.7.974,16.877,16.877,0,0,0-1.889.982,9.7,9.7,0,0,0-1.473,1.055c.006,0,.515-.28,1.36-.669a19.664,19.664,0,0,1,3.238-1.106,13.493,13.493,0,0,1,1.994-.346l.05-.008a1.927,1.927,0,0,1,.339-.037,19.5,19.5,0,0,1,4.655-.046,18.787,18.787,0,0,1,6.936,2.213,9.363,9.363,0,0,0-1.4-1.014,16.645,16.645,0,0,0-1.785-.95,20.625,20.625,0,0,0-2.549-.963l.325-.368h.028a9.031,9.031,0,0,1,2.162.325,12.041,12.041,0,0,1,2,.721,12.794,12.794,0,0,1,2.291,1.373s.209.379.519,1.055c.284.621.712,1.624,1.141,2.88a32.25,32.25,0,0,1,1.141,4.27,27.62,27.62,0,0,1,.519,5.23,4.442,4.442,0,0,1-.385.525A7.6,7.6,0,0,1,1255.211,618.449Z" fill="#0EA8D6"/>
  </g>
</svg>
