<svg id="Groupe_65" data-name="Groupe 65" xmlns="http://www.w3.org/2000/svg" xmlns:xlink="http://www.w3.org/1999/xlink" width="55.331" height="51.385" viewBox="0 0 55.331 51.385">
  <defs>
    <clipPath id="clip-path">
      <rect id="Rectangle_38" data-name="Rectangle 38" width="55.331" height="51.385" fill="#fff"/>
    </clipPath>
  </defs>
  <g id="Groupe_64" data-name="Groupe 64" clip-path="url(#clip-path)">
    <path id="Tracé_99" data-name="Tracé 99" d="M55.3,8.462,52.623.422A.608.608,0,0,0,52.028,0h0l-.063,0-.047.008A.467.467,0,0,0,51.8.038L34.7,6.427H20.629L3.509.038A.59.59,0,0,0,3.3,0H3.276L3.224,0a.594.594,0,0,0-.182.028.617.617,0,0,0-.4.4L.031,8.464a.624.624,0,0,0-.018.319L1.7,17.053l-.81.613a.623.623,0,0,0-.007.986l1.041.811-.654.526a.624.624,0,0,0-.034.939l1.112,1.037-.434.32a.623.623,0,0,0-.108.9l2.232,2.678L.475,36.959A.214.214,0,0,0,.466,37a.631.631,0,0,0-.014.073.528.528,0,0,0,0,.067.581.581,0,0,0,0,.076c0,.02.005.039.009.058s.007.036.01.049L3.907,49.052a.619.619,0,0,0,.758.423L16.385,46.25l2.088,1.708.037.028,4.731,3.288a.615.615,0,0,0,.353.111h8.125a.614.614,0,0,0,.352-.11l4.749-3.286c.014-.01.028-.02.042-.032l2.086-1.707,11.72,3.224a.611.611,0,0,0,.164.022.622.622,0,0,0,.593-.444l3.458-11.732a.457.457,0,0,0,.01-.046.628.628,0,0,0,.011-.065.681.681,0,0,0,0-.072.64.64,0,0,0,0-.068.351.351,0,0,0-.01-.054.447.447,0,0,0-.014-.06L51.258,25.81,53.5,23.188a.62.62,0,0,0-.108-.9l-.44-.319,1.127-1.035a.62.62,0,0,0-.038-.945l-.675-.526,1.05-.806a.62.62,0,0,0,0-.985l-.806-.612,1.713-8.272a.625.625,0,0,0-.019-.322m-3.321,10.5a.62.62,0,0,0,0,.98l.73.568-1.147,1.053a.62.62,0,0,0,.055.958l.511.37-1.75,2.049-10.516-3.1-1.989-1.693L32.877,15.7,51.722,1.625,54.077,8.7l-1.758,8.491a.622.622,0,0,0,.232.62l.471.358ZM32.593,46.292l-.182-.16-.388-3.175,5.349,2.6-4.6,2.176.031-.96a.617.617,0,0,0-.21-.485m-8.806,3.855-2.074-1.442,1.235.584a.626.626,0,0,0,.263.059.618.618,0,0,0,.619-.632l-.036-1.7.112-.107H31.42l.136.12L31.5,48.71a.619.619,0,0,0,.619.639.629.629,0,0,0,.265-.059l1.2-.567-2.06,1.425Zm-1.216-2.405L17.958,45.56,23.3,42.954l-.358,3.167-.2.189a.62.62,0,0,0-.191.46Zm-18.9-25.22a.623.623,0,0,0,.055-.955L2.59,20.508,3.3,19.94a.623.623,0,0,0-.007-.975l-1.022-.8.476-.36a.625.625,0,0,0,.232-.62L1.245,8.694l2.3-7.064L22.216,15.8l-7,6.052L4.87,24.941,3.164,22.895ZM33.882,7.664l-2.929,6.943-.4,1.13a.3.3,0,0,0-.017.095l-.241,12.121-.567,3.78a.617.617,0,0,0-.006.107l.237,8.911h-4.6l.3-8.884a.632.632,0,0,0-.007-.116l-.588-3.8L24.615,15.9a.3.3,0,0,0-.017-.088l-.372-1.064-2.8-7.087ZM48.14,2.728,32.909,14.04l2.413-6.523ZM40.413,30.82l-1.866,3.622.079-1.8Zm-25.525-.044,1.837,1.861.064,1.845Zm16.353,4.087.007-1.5.137.764Zm.038,6.226,1.27-6.466,4.813-1.412-.154,3.522a.612.612,0,0,0-.042.213L31.588,41.3Zm-7.2-6.25-.137-.707.134-.729Zm-1.3-.217,1.252,6.466-.311.213-5.556-4.339a.618.618,0,0,0-.061-.271l-.122-3.482Zm1-7.267L13.617,26.9l2.7-4.091,6.819-6.04ZM14.4,23.472l-2.424,3.666a.3.3,0,0,0-.022.041.426.426,0,0,0-.022.041c0,.011-.021.052-.024.064a.408.408,0,0,0-.01.042c0,.011-.011.059-.013.071s0,.028-.005.041a.387.387,0,0,0,0,.073c0,.011,0,.047,0,.052a.316.316,0,0,0,.006.038.512.512,0,0,0,.025.079.443.443,0,0,0,.03.076l4.419,8.614-5.026.145a.622.622,0,0,0-.432-.178l-8.991.174,3.326-10.36Zm9.3,5.118-.649,3.538-.918-1.949a.622.622,0,0,0-.56-.355.614.614,0,0,0-.256.055l-3.85,1.752-3.425-3.47Zm10.327,1.29a.616.616,0,0,0-.256-.055.623.623,0,0,0-.559.352l-.933,1.956-.637-3.543,9.643-.429L37.88,31.631ZM41.711,26.9l-10.142.451.6-10.434L37,21.034l1.994,1.779Zm2.716,9.433a.633.633,0,0,0-.437.178l-5.044-.145,4.44-8.617a.429.429,0,0,0,.033-.087.37.37,0,0,0,.018-.054.293.293,0,0,0,.008-.046c0-.009,0-.024,0-.024s0-.023,0-.03a.456.456,0,0,0,0-.076c0-.011,0-.025-.005-.038s-.01-.056-.012-.066a.392.392,0,0,0-.014-.058c0-.007-.018-.047-.022-.056a.445.445,0,0,0-.024-.043l0-.007a.335.335,0,0,0-.022-.038l-2.433-3.656,9.151,2.677,3.364,10.36ZM10.577,37.766,15.539,45.2,4.924,48.12,1.891,37.766Zm1.609.017,4.624.06-.7,5.957ZM18,38.4l4.538,3.544-5.261,2.568Zm14.775,3.543L37.322,38.4l.732,6.121Zm10.372-4.164L39.217,43.8l-.7-5.96ZM39.793,45.2l4.962-7.434h8.705L50.409,48.12ZM20.034,7.526l2.505,6.864L7.045,2.679Z" transform="translate(0)" fill="#fff"/>
  </g>
</svg>
