<svg xmlns="http://www.w3.org/2000/svg" width="62.323" height="53.419" viewBox="0 0 62.323 53.419">
  <path id="Icon_ionic-ios-speedometer" data-name="Icon ionic-ios-speedometer" d="M33.411,4.5A31.151,31.151,0,0,0,10.082,56.306c.153.167.292.334.445.487a3.5,3.5,0,0,0,5.161-.014,24.084,24.084,0,0,1,35.446,0,3.5,3.5,0,0,0,5.161.014l.445-.487A31.151,31.151,0,0,0,33.411,4.5Zm-1.948,6.385a1.948,1.948,0,1,1,3.9,0v5.008a1.948,1.948,0,1,1-3.9,0ZM13.657,37.595H8.649a1.948,1.948,0,0,1,0-3.9h5.008a1.948,1.948,0,0,1,0,3.9Zm7.164-14.537h0a1.965,1.965,0,0,1-2.754,0L14.52,19.524a1.965,1.965,0,0,1,0-2.754h0a1.965,1.965,0,0,1,2.754,0l3.547,3.547A1.948,1.948,0,0,1,20.822,23.058Zm22.342,4.8-6.608,10.5a4.312,4.312,0,0,1-.974.974,4.188,4.188,0,1,1-4.869-6.817l10.5-6.608a1.423,1.423,0,0,1,1.628,0A1.4,1.4,0,0,1,43.163,27.857Zm5.592-4.8a1.965,1.965,0,0,1-2.754,0h0A1.965,1.965,0,0,1,46,20.3l3.547-3.547a1.965,1.965,0,0,1,2.754,0h0a1.965,1.965,0,0,1,0,2.754Zm9.418,14.537H53.165a1.948,1.948,0,0,1,0-3.9h5.008a1.948,1.948,0,0,1,0,3.9Z" transform="translate(-2.25 -4.5)" fill="#161a42"/>
</svg>
