<svg xmlns="http://www.w3.org/2000/svg" width="18.706" height="14.549" viewBox="0 0 18.706 14.549">
  <path id="Icon_awesome-book-open" data-name="Icon awesome-book-open" d="M17.609,2.251c-1.78.1-5.317.469-7.5,1.805a.5.5,0,0,0-.236.428V16.3a.514.514,0,0,0,.756.438,19.808,19.808,0,0,1,7.1-1.524,1.013,1.013,0,0,0,.975-1V3.248a1.018,1.018,0,0,0-1.1-1ZM8.6,4.057C6.414,2.72,2.877,2.353,1.1,2.251a1.019,1.019,0,0,0-1.1,1V14.221a1.012,1.012,0,0,0,.975,1,19.805,19.805,0,0,1,7.1,1.525.512.512,0,0,0,.754-.437V4.479A.489.489,0,0,0,8.6,4.057Z" transform="translate(0 -2.25)" fill="#fff"/>
</svg>
