<svg xmlns="http://www.w3.org/2000/svg" width="18.453" height="18.454" viewBox="0 0 18.453 18.454">
  <path id="Icon_awesome-music" data-name="Icon awesome-music" d="M18.453,1.153a1.153,1.153,0,0,0-1.5-1.1L5.421,3.46a1.153,1.153,0,0,0-.807,1.1v9.422A4.986,4.986,0,0,0,3.46,13.84C1.549,13.84,0,14.872,0,16.146s1.549,2.307,3.46,2.307,3.46-1.033,3.46-2.307V7.724l9.227-2.7v6.654a4.986,4.986,0,0,0-1.153-.141c-1.911,0-3.46,1.033-3.46,2.307s1.549,2.307,3.46,2.307,3.46-1.033,3.46-2.307V1.153Z" transform="translate(0 0.001)" fill="#fff"/>
</svg>
