<svg xmlns="http://www.w3.org/2000/svg" width="21.684" height="17.165" viewBox="0 0 21.684 17.165">
  <path id="Icon_map-art-gallery" data-name="Icon map-art-gallery" d="M9.85,4.32C4.144,4.32.72,8.9.72,11.186s1.141,4.005,3.424,4.005,3.424.572,3.424,2.288a3.906,3.906,0,0,0,3.994,4.005c7.418,0,10.842-4.005,10.842-8.01C22.4,6.609,16.7,4.32,9.85,4.32ZM8.423,6.609A1.43,1.43,0,1,1,7,8.039a1.428,1.428,0,0,1,1.427-1.43Zm4.564,0a1.43,1.43,0,1,1-1.426,1.43,1.428,1.428,0,0,1,1.426-1.43ZM17.553,8.9a1.43,1.43,0,1,1-1.426,1.431A1.428,1.428,0,0,1,17.553,8.9ZM4.429,10.042A1.43,1.43,0,1,1,3,11.472a1.427,1.427,0,0,1,1.427-1.43Zm7.132,5.722A1.717,1.717,0,1,1,9.85,17.481,1.714,1.714,0,0,1,11.562,15.764Z" transform="translate(-0.72 -4.32)" fill="#fff"/>
</svg>
