<svg xmlns="http://www.w3.org/2000/svg" width="19.776" height="13.848" viewBox="0 0 19.776 13.848">
  <path id="Icon_metro-gamepad" data-name="Icon metro-gamepad" d="M16.379,6.927c-.85,0-2.5,1.2-3.9,1.2s-3.15-1.2-3.9-1.2c-5.15,0-8.1,13.848-4.25,13.848,3.25,0,3.687-4.05,8.137-4.05,3.6,0,5.712,4,8.112,4,3.849,0,.95-13.8-4.2-13.8Zm-8.1,7.8a2.7,2.7,0,1,1,2.7-2.7A2.7,2.7,0,0,1,8.279,14.727Zm7.162-1.5a.6.6,0,1,1,.6-.6A.6.6,0,0,1,15.441,13.227Zm1.838,1.8a.6.6,0,1,1,.6-.6A.6.6,0,0,1,17.279,15.027Zm0-3.6a.6.6,0,1,1,.6-.6A.6.6,0,0,1,17.279,11.427Zm1.8,1.8a.6.6,0,1,1,.6-.6A.6.6,0,0,1,19.079,13.227Zm-10.8-2.7a1.5,1.5,0,1,0,1.5,1.5A1.5,1.5,0,0,0,8.279,10.527Z" transform="translate(-2.572 -6.927)" fill="#fff"/>
</svg>
