<svg xmlns="http://www.w3.org/2000/svg" width="18.746" height="18.746" viewBox="0 0 18.746 18.746">
  <path id="Icon_awesome-football-ball" data-name="Icon awesome-football-ball" d="M18.2,2.539a2,2,0,0,0-1.41-1.413A16.934,16.934,0,0,0,12.827.563l5.918,5.926A16.98,16.98,0,0,0,18.2,2.539ZM.548,17.332a2,2,0,0,0,1.41,1.413,16.934,16.934,0,0,0,3.961.563L0,13.382A16.979,16.979,0,0,0,.548,17.332ZM.159,10.971,8.33,19.157A12.009,12.009,0,0,0,18.591,8.9L10.416.714A12,12,0,0,0,.159,10.971ZM12.151,6.3a.3.3,0,0,1,.427,0L13,6.727a.3.3,0,0,1,0,.427l-1.07,1.07L13,9.293a.3.3,0,0,1,0,.427l-.427.427a.3.3,0,0,1-.427,0l-1.07-1.07-.854.858L11.3,11a.3.3,0,0,1,0,.427l-.427.427a.3.3,0,0,1-.427,0l-1.07-1.07-.854.854,1.07,1.07a.3.3,0,0,1,0,.427l-.427.427a.3.3,0,0,1-.427,0L7.665,12.5l-1.07,1.07a.3.3,0,0,1-.427,0l-.427-.427a.3.3,0,0,1,0-.427l1.07-1.07-1.07-1.066a.3.3,0,0,1,0-.427l.427-.427a.3.3,0,0,1,.427,0l1.07,1.07.854-.854L7.449,8.87a.3.3,0,0,1,0-.427l.427-.427a.3.3,0,0,1,.427,0l1.07,1.07.854-.854-1.07-1.07a.3.3,0,0,1,0-.427l.427-.427a.3.3,0,0,1,.427,0l1.07,1.07Z" transform="translate(0 -0.563)" fill="#fff"/>
</svg>
