<svg xmlns="http://www.w3.org/2000/svg" xmlns:xlink="http://www.w3.org/1999/xlink" width="51.752" height="55.418" viewBox="0 0 51.752 55.418">
  <defs>
    <clipPath id="clip-path">
      <rect id="Rectangle_37" data-name="Rectangle 37" width="51.752" height="55.418" fill="#fff"/>
    </clipPath>
  </defs>
  <g id="Groupe_63" data-name="Groupe 63" transform="translate(0 0)">
    <g id="Groupe_62" data-name="Groupe 62" transform="translate(0 0)" clip-path="url(#clip-path)">
      <path id="Tracé_89" data-name="Tracé 89" d="M10.555,38.252a.84.84,0,0,0-1.059.537A19.24,19.24,0,0,0,9.269,48.9a.841.841,0,0,0,.808.613.863.863,0,0,0,.227-.031.841.841,0,0,0,.582-1.036,17.733,17.733,0,0,1,.206-9.136.839.839,0,0,0-.537-1.059" transform="translate(1.344 5.905)" fill="#fff"/>
      <path id="Tracé_90" data-name="Tracé 90" d="M5.75,18.836h4.818a.84.84,0,0,0,0-1.68H5.75a.84.84,0,1,0,0,1.68" transform="translate(0.759 2.651)" fill="#fff"/>
      <path id="Tracé_91" data-name="Tracé 91" d="M25.708,17.994a.84.84,0,0,0,.838.842h4.819a.841.841,0,0,0,0-1.681H26.546a.84.84,0,0,0-.838.839" transform="translate(3.974 2.651)" fill="#fff"/>
      <path id="Tracé_92" data-name="Tracé 92" d="M39.824,17.156H35.007a.84.84,0,0,0,0,1.68h4.817a.84.84,0,1,0,0-1.68" transform="translate(5.281 2.651)" fill="#fff"/>
      <path id="Tracé_93" data-name="Tracé 93" d="M40.36,23.048H31.543a.839.839,0,0,0,0,1.679H40.36a.839.839,0,1,0,0-1.679" transform="translate(4.746 3.562)" fill="#fff"/>
      <path id="Tracé_94" data-name="Tracé 94" d="M30.5,39.6c-.042-.023-3.481-2.083-3.7-13.31h5.017a.839.839,0,1,0,0-1.679H26.786c.014-1.717.1-3.618.271-5.737a5.205,5.205,0,0,0-1.41-3.982,6.043,6.043,0,0,0-8.853-.025,5.27,5.27,0,0,0-1.444,4c.053.722.135,1.544.224,2.435.1,1.015.212,2.136.3,3.309H6.508a.839.839,0,0,0,0,1.679h9.463a33.339,33.339,0,0,1-.119,5.093H4.676a3,3,0,0,1-3-3v-4.94a.839.839,0,1,0-1.679,0v4.94A4.681,4.681,0,0,0,4.676,33.06H15.589a11.217,11.217,0,0,1-2.279,5.171.84.84,0,1,0,1.278,1.09c4.009-4.706,3.2-12.819,2.657-18.187-.088-.875-.167-1.682-.219-2.391a3.614,3.614,0,0,1,1-2.735,4.36,4.36,0,0,1,3.18-1.381,4.432,4.432,0,0,1,3.21,1.4,3.545,3.545,0,0,1,.97,2.706C23.826,37.646,29.133,40.8,29.745,41.1a.806.806,0,0,0,.36.083.836.836,0,0,0,.741-.455A.849.849,0,0,0,30.5,39.6" transform="translate(0 2.001)" fill="#fff"/>
      <path id="Tracé_95" data-name="Tracé 95" d="M46.886,12.665a.841.841,0,0,0-.839.842v14.92a3,3,0,0,1-3,3H26.894a.839.839,0,0,0,0,1.679h9.7c.206,6.651-3.4,14-6.542,19.077a.84.84,0,0,0,1.428.883c3.255-5.263,6.989-12.9,6.795-19.96h4.774a4.683,4.683,0,0,0,4.677-4.676V13.507a.841.841,0,0,0-.841-.842" transform="translate(4.027 1.957)" fill="#fff"/>
      <path id="Tracé_96" data-name="Tracé 96" d="M47.076,0H4.676A4.682,4.682,0,0,0,0,4.676V20.967a.839.839,0,0,0,1.679,0V4.676a3,3,0,0,1,3-3h42.4a3,3,0,0,1,3,3v6.309a.839.839,0,0,0,1.679,0V4.676A4.682,4.682,0,0,0,47.076,0" transform="translate(0 -0.001)" fill="#fff"/>
      <path id="Tracé_97" data-name="Tracé 97" d="M32.224,5.52a4.037,4.037,0,1,0,0,8.074,4,4,0,0,0,2.658-1.023,4.033,4.033,0,1,0,4.242-6.733.84.84,0,0,0-.653,1.547,2.357,2.357,0,1,1-2.527,3.893c-.018-.016-.043-.022-.062-.038a3.992,3.992,0,0,0,.38-1.683A4.04,4.04,0,0,0,32.224,5.52m0,6.394a2.358,2.358,0,1,1,2.358-2.358,2.36,2.36,0,0,1-2.358,2.358" transform="translate(4.357 0.853)" fill="#fff"/>
      <path id="Tracé_98" data-name="Tracé 98" d="M10.676,13.347a.834.834,0,0,0,.272.181.844.844,0,0,0,.322.065h2.523a1.961,1.961,0,0,0,1.958-1.959V7.479A1.961,1.961,0,0,0,13.793,5.52H6.869A1.962,1.962,0,0,0,4.91,7.479v4.154a1.962,1.962,0,0,0,1.959,1.959.839.839,0,1,0,0-1.679.281.281,0,0,1-.281-.281V7.479A.281.281,0,0,1,6.869,7.2H9.678a5.353,5.353,0,0,0,1,6.148M11.663,7.2h2.13a.281.281,0,0,1,.279.281v4.154a.281.281,0,0,1-.279.281h-2.13a3.665,3.665,0,0,1,0-4.715" transform="translate(0.759 0.853)" fill="#fff"/>
    </g>
  </g>
</svg>
