<svg xmlns="http://www.w3.org/2000/svg" width="12.449" height="10.954" viewBox="0 0 12.449 10.954">
  <g id="polygon-matic-logo" transform="translate(0 0.1)">
    <path id="Tracé_86" data-name="Tracé 86" d="M9.426,3.248a.828.828,0,0,0-.78,0L6.826,4.32,5.591,5,3.8,6.076a.828.828,0,0,1-.78,0l-1.4-.845a.792.792,0,0,1-.39-.683V2.923a.8.8,0,0,1,.39-.683l1.4-.813a.828.828,0,0,1,.78,0l1.4.845a.792.792,0,0,1,.39.683V4.028l1.235-.715V2.208a.8.8,0,0,0-.39-.683L3.835,0a.828.828,0,0,0-.78,0L.39,1.558a.715.715,0,0,0-.39.65V5.263a.8.8,0,0,0,.39.683L3.023,7.473a.828.828,0,0,0,.78,0l1.788-1.04,1.235-.715,1.788-1.04a.828.828,0,0,1,.78,0l1.4.813a.792.792,0,0,1,.39.683V7.8a.8.8,0,0,1-.39.683l-1.365.813a.828.828,0,0,1-.78,0l-1.4-.813a.792.792,0,0,1-.39-.683V6.758l-1.235.715V8.546a.8.8,0,0,0,.39.683l2.633,1.528a.828.828,0,0,0,.78,0l2.633-1.528a.792.792,0,0,0,.39-.683V5.458a.8.8,0,0,0-.39-.683Z" transform="translate(0 0)" fill="#0ea8d6"/>
  </g>
</svg>
